<mxfile host="Electron" modified="2023-11-09T02:37:36.862Z" agent="Mozilla/5.0 (Windows NT 10.0; Win64; x64) AppleWebKit/537.36 (KHTML, like Gecko) draw.io/21.6.8 Chrome/114.0.5735.289 Electron/25.5.0 Safari/537.36" etag="A1mjxrpYv4hqAHgoGwRP" version="21.6.8" type="device">
  <diagram name="Page-1" id="3OH9P1x5GZw6t_nXb-2K">
    <mxGraphModel dx="2232" dy="1115" grid="1" gridSize="10" guides="1" tooltips="1" connect="1" arrows="1" fold="1" page="1" pageScale="1" pageWidth="827" pageHeight="1169" math="0" shadow="0">
      <root>
        <mxCell id="0" />
        <mxCell id="1" parent="0" />
        <mxCell id="M098wKi7xd-gNNJSRAjr-12" value="12345,-21234" style="text;html=1;align=center;verticalAlign=middle;resizable=0;points=[];autosize=1;strokeColor=none;fillColor=none;" vertex="1" parent="1">
          <mxGeometry x="220" y="140" width="100" height="30" as="geometry" />
        </mxCell>
        <mxCell id="M098wKi7xd-gNNJSRAjr-21" value="have" style="shape=rhombus;perimeter=rhombusPerimeter;whiteSpace=wrap;html=1;align=center;" vertex="1" parent="1">
          <mxGeometry x="90" y="400" width="120" height="60" as="geometry" />
        </mxCell>
        <mxCell id="M098wKi7xd-gNNJSRAjr-26" value="" style="endArrow=none;html=1;rounded=0;" edge="1" parent="1" target="M098wKi7xd-gNNJSRAjr-21">
          <mxGeometry relative="1" as="geometry">
            <mxPoint x="150" y="310" as="sourcePoint" />
            <mxPoint x="310" y="310" as="targetPoint" />
          </mxGeometry>
        </mxCell>
        <mxCell id="M098wKi7xd-gNNJSRAjr-27" value="n" style="edgeLabel;html=1;align=center;verticalAlign=middle;resizable=0;points=[];" vertex="1" connectable="0" parent="M098wKi7xd-gNNJSRAjr-26">
          <mxGeometry x="0.0333" y="2" relative="1" as="geometry">
            <mxPoint as="offset" />
          </mxGeometry>
        </mxCell>
        <mxCell id="M098wKi7xd-gNNJSRAjr-28" value="1" style="edgeLabel;html=1;align=center;verticalAlign=middle;resizable=0;points=[];" vertex="1" connectable="0" parent="M098wKi7xd-gNNJSRAjr-26">
          <mxGeometry y="4" relative="1" as="geometry">
            <mxPoint as="offset" />
          </mxGeometry>
        </mxCell>
        <mxCell id="M098wKi7xd-gNNJSRAjr-32" value="" style="endArrow=none;html=1;rounded=0;" edge="1" parent="1" source="M098wKi7xd-gNNJSRAjr-21" target="M098wKi7xd-gNNJSRAjr-13">
          <mxGeometry relative="1" as="geometry">
            <mxPoint x="190" y="360" as="sourcePoint" />
            <mxPoint x="350" y="360" as="targetPoint" />
          </mxGeometry>
        </mxCell>
        <mxCell id="M098wKi7xd-gNNJSRAjr-33" value="1" style="edgeLabel;html=1;align=center;verticalAlign=middle;resizable=0;points=[];" vertex="1" connectable="0" parent="M098wKi7xd-gNNJSRAjr-32">
          <mxGeometry x="-0.296" y="3" relative="1" as="geometry">
            <mxPoint as="offset" />
          </mxGeometry>
        </mxCell>
        <mxCell id="M098wKi7xd-gNNJSRAjr-40" value="have" style="shape=rhombus;perimeter=rhombusPerimeter;whiteSpace=wrap;html=1;align=center;" vertex="1" parent="1">
          <mxGeometry x="406" y="360" width="120" height="60" as="geometry" />
        </mxCell>
        <mxCell id="M098wKi7xd-gNNJSRAjr-41" value="" style="endArrow=none;html=1;rounded=0;" edge="1" parent="1" source="M098wKi7xd-gNNJSRAjr-40" target="M098wKi7xd-gNNJSRAjr-31">
          <mxGeometry relative="1" as="geometry">
            <mxPoint x="330" y="350" as="sourcePoint" />
            <mxPoint x="490" y="350" as="targetPoint" />
          </mxGeometry>
        </mxCell>
        <mxCell id="M098wKi7xd-gNNJSRAjr-44" value="N" style="edgeLabel;html=1;align=center;verticalAlign=middle;resizable=0;points=[];" vertex="1" connectable="0" parent="M098wKi7xd-gNNJSRAjr-41">
          <mxGeometry x="0.1176" y="1" relative="1" as="geometry">
            <mxPoint as="offset" />
          </mxGeometry>
        </mxCell>
        <mxCell id="M098wKi7xd-gNNJSRAjr-42" value="" style="endArrow=none;html=1;rounded=0;entryX=0.5;entryY=1;entryDx=0;entryDy=0;exitX=1;exitY=0.5;exitDx=0;exitDy=0;" edge="1" parent="1" source="M098wKi7xd-gNNJSRAjr-13" target="M098wKi7xd-gNNJSRAjr-40">
          <mxGeometry relative="1" as="geometry">
            <mxPoint x="330" y="350" as="sourcePoint" />
            <mxPoint x="490" y="350" as="targetPoint" />
            <Array as="points">
              <mxPoint x="466" y="615" />
            </Array>
          </mxGeometry>
        </mxCell>
        <mxCell id="M098wKi7xd-gNNJSRAjr-43" value="1" style="edgeLabel;html=1;align=center;verticalAlign=middle;resizable=0;points=[];" vertex="1" connectable="0" parent="M098wKi7xd-gNNJSRAjr-42">
          <mxGeometry x="0.139" y="-1" relative="1" as="geometry">
            <mxPoint as="offset" />
          </mxGeometry>
        </mxCell>
        <mxCell id="M098wKi7xd-gNNJSRAjr-61" value="rent" style="shape=rhombus;perimeter=rhombusPerimeter;whiteSpace=wrap;html=1;align=center;" vertex="1" parent="1">
          <mxGeometry x="650" y="250" width="120" height="60" as="geometry" />
        </mxCell>
        <mxCell id="M098wKi7xd-gNNJSRAjr-63" value="" style="endArrow=none;html=1;rounded=0;exitX=1;exitY=0.5;exitDx=0;exitDy=0;entryX=0;entryY=0.75;entryDx=0;entryDy=0;" edge="1" parent="1" source="M098wKi7xd-gNNJSRAjr-61" target="M098wKi7xd-gNNJSRAjr-45">
          <mxGeometry relative="1" as="geometry">
            <mxPoint x="750" y="130" as="sourcePoint" />
            <mxPoint x="910" y="130" as="targetPoint" />
            <Array as="points" />
          </mxGeometry>
        </mxCell>
        <mxCell id="M098wKi7xd-gNNJSRAjr-64" value="1" style="edgeLabel;html=1;align=center;verticalAlign=middle;resizable=0;points=[];" vertex="1" connectable="0" parent="M098wKi7xd-gNNJSRAjr-63">
          <mxGeometry x="-0.0113" y="-2" relative="1" as="geometry">
            <mxPoint as="offset" />
          </mxGeometry>
        </mxCell>
        <mxCell id="M098wKi7xd-gNNJSRAjr-66" value="" style="endArrow=none;html=1;rounded=0;exitX=0;exitY=0.5;exitDx=0;exitDy=0;entryX=1;entryY=0.5;entryDx=0;entryDy=0;" edge="1" parent="1" source="M098wKi7xd-gNNJSRAjr-61" target="M098wKi7xd-gNNJSRAjr-31">
          <mxGeometry relative="1" as="geometry">
            <mxPoint x="750" y="130" as="sourcePoint" />
            <mxPoint x="910" y="130" as="targetPoint" />
          </mxGeometry>
        </mxCell>
        <mxCell id="M098wKi7xd-gNNJSRAjr-67" value="1" style="edgeLabel;html=1;align=center;verticalAlign=middle;resizable=0;points=[];" vertex="1" connectable="0" parent="M098wKi7xd-gNNJSRAjr-66">
          <mxGeometry x="-0.3686" y="-1" relative="1" as="geometry">
            <mxPoint as="offset" />
          </mxGeometry>
        </mxCell>
        <mxCell id="M098wKi7xd-gNNJSRAjr-87" value="have" style="shape=rhombus;perimeter=rhombusPerimeter;whiteSpace=wrap;html=1;align=center;" vertex="1" parent="1">
          <mxGeometry x="880" y="410" width="120" height="60" as="geometry" />
        </mxCell>
        <mxCell id="M098wKi7xd-gNNJSRAjr-91" value="" style="endArrow=none;html=1;rounded=0;exitX=0.5;exitY=0;exitDx=0;exitDy=0;" edge="1" parent="1" source="M098wKi7xd-gNNJSRAjr-87" target="M098wKi7xd-gNNJSRAjr-45">
          <mxGeometry relative="1" as="geometry">
            <mxPoint x="750" y="520" as="sourcePoint" />
            <mxPoint x="910" y="520" as="targetPoint" />
          </mxGeometry>
        </mxCell>
        <mxCell id="M098wKi7xd-gNNJSRAjr-92" value="1" style="edgeLabel;html=1;align=center;verticalAlign=middle;resizable=0;points=[];" vertex="1" connectable="0" parent="M098wKi7xd-gNNJSRAjr-91">
          <mxGeometry x="-0.1848" y="1" relative="1" as="geometry">
            <mxPoint x="1" as="offset" />
          </mxGeometry>
        </mxCell>
        <mxCell id="M098wKi7xd-gNNJSRAjr-125" value="" style="endArrow=none;html=1;rounded=0;exitX=0;exitY=0.5;exitDx=0;exitDy=0;entryX=0.5;entryY=1;entryDx=0;entryDy=0;" edge="1" parent="1" source="M098wKi7xd-gNNJSRAjr-68" target="M098wKi7xd-gNNJSRAjr-87">
          <mxGeometry relative="1" as="geometry">
            <mxPoint x="940" y="640" as="sourcePoint" />
            <mxPoint x="900" y="560" as="targetPoint" />
            <Array as="points">
              <mxPoint x="940" y="705" />
            </Array>
          </mxGeometry>
        </mxCell>
        <mxCell id="M098wKi7xd-gNNJSRAjr-126" value="N" style="edgeLabel;html=1;align=center;verticalAlign=middle;resizable=0;points=[];" vertex="1" connectable="0" parent="M098wKi7xd-gNNJSRAjr-125">
          <mxGeometry x="0.4784" y="-1" relative="1" as="geometry">
            <mxPoint as="offset" />
          </mxGeometry>
        </mxCell>
        <mxCell id="M098wKi7xd-gNNJSRAjr-191" value="N" style="edgeLabel;html=1;align=center;verticalAlign=middle;resizable=0;points=[];" vertex="1" connectable="0" parent="M098wKi7xd-gNNJSRAjr-125">
          <mxGeometry x="-0.8102" y="1" relative="1" as="geometry">
            <mxPoint as="offset" />
          </mxGeometry>
        </mxCell>
        <mxCell id="M098wKi7xd-gNNJSRAjr-128" value="" style="group" vertex="1" connectable="0" parent="1">
          <mxGeometry x="880" y="830" width="395" height="310" as="geometry" />
        </mxCell>
        <mxCell id="M098wKi7xd-gNNJSRAjr-98" value="&lt;span style=&quot;&quot;&gt;plans&lt;/span&gt;" style="rounded=1;whiteSpace=wrap;html=1;" vertex="1" parent="M098wKi7xd-gNNJSRAjr-128">
          <mxGeometry x="95" y="160" width="120" height="60" as="geometry" />
        </mxCell>
        <mxCell id="M098wKi7xd-gNNJSRAjr-99" value="id" style="ellipse;whiteSpace=wrap;html=1;align=center;fontStyle=4;" vertex="1" parent="M098wKi7xd-gNNJSRAjr-128">
          <mxGeometry y="75" width="100" height="40" as="geometry" />
        </mxCell>
        <mxCell id="M098wKi7xd-gNNJSRAjr-112" style="edgeStyle=orthogonalEdgeStyle;rounded=0;orthogonalLoop=1;jettySize=auto;html=1;entryX=0.5;entryY=1;entryDx=0;entryDy=0;" edge="1" parent="M098wKi7xd-gNNJSRAjr-128" source="M098wKi7xd-gNNJSRAjr-98" target="M098wKi7xd-gNNJSRAjr-99">
          <mxGeometry relative="1" as="geometry">
            <Array as="points">
              <mxPoint x="105" y="138" />
              <mxPoint x="50" y="138" />
            </Array>
          </mxGeometry>
        </mxCell>
        <mxCell id="M098wKi7xd-gNNJSRAjr-100" value="title" style="ellipse;whiteSpace=wrap;html=1;align=center;" vertex="1" parent="M098wKi7xd-gNNJSRAjr-128">
          <mxGeometry x="55" y="25" width="100" height="40" as="geometry" />
        </mxCell>
        <mxCell id="M098wKi7xd-gNNJSRAjr-113" style="edgeStyle=orthogonalEdgeStyle;rounded=0;orthogonalLoop=1;jettySize=auto;html=1;entryX=0.5;entryY=1;entryDx=0;entryDy=0;" edge="1" parent="M098wKi7xd-gNNJSRAjr-128" source="M098wKi7xd-gNNJSRAjr-98" target="M098wKi7xd-gNNJSRAjr-100">
          <mxGeometry relative="1" as="geometry">
            <Array as="points">
              <mxPoint x="105" y="130" />
              <mxPoint x="105" y="130" />
            </Array>
          </mxGeometry>
        </mxCell>
        <mxCell id="M098wKi7xd-gNNJSRAjr-101" value="description" style="ellipse;whiteSpace=wrap;html=1;align=center;" vertex="1" parent="M098wKi7xd-gNNJSRAjr-128">
          <mxGeometry x="115" y="75" width="100" height="40" as="geometry" />
        </mxCell>
        <mxCell id="M098wKi7xd-gNNJSRAjr-114" style="edgeStyle=orthogonalEdgeStyle;rounded=0;orthogonalLoop=1;jettySize=auto;html=1;" edge="1" parent="M098wKi7xd-gNNJSRAjr-128" source="M098wKi7xd-gNNJSRAjr-98" target="M098wKi7xd-gNNJSRAjr-101">
          <mxGeometry relative="1" as="geometry">
            <Array as="points">
              <mxPoint x="165" y="140" />
              <mxPoint x="165" y="140" />
            </Array>
          </mxGeometry>
        </mxCell>
        <mxCell id="M098wKi7xd-gNNJSRAjr-102" value="price" style="ellipse;whiteSpace=wrap;html=1;align=center;" vertex="1" parent="M098wKi7xd-gNNJSRAjr-128">
          <mxGeometry x="165" y="25" width="100" height="40" as="geometry" />
        </mxCell>
        <mxCell id="M098wKi7xd-gNNJSRAjr-115" style="edgeStyle=orthogonalEdgeStyle;rounded=0;orthogonalLoop=1;jettySize=auto;html=1;" edge="1" parent="M098wKi7xd-gNNJSRAjr-128" source="M098wKi7xd-gNNJSRAjr-98" target="M098wKi7xd-gNNJSRAjr-102">
          <mxGeometry relative="1" as="geometry">
            <Array as="points">
              <mxPoint x="185" y="130" />
              <mxPoint x="225" y="130" />
            </Array>
          </mxGeometry>
        </mxCell>
        <mxCell id="M098wKi7xd-gNNJSRAjr-103" value="price_frequency" style="ellipse;whiteSpace=wrap;html=1;align=center;" vertex="1" parent="M098wKi7xd-gNNJSRAjr-128">
          <mxGeometry x="235" y="65" width="100" height="40" as="geometry" />
        </mxCell>
        <mxCell id="M098wKi7xd-gNNJSRAjr-118" style="edgeStyle=orthogonalEdgeStyle;rounded=0;orthogonalLoop=1;jettySize=auto;html=1;entryX=0.5;entryY=1;entryDx=0;entryDy=0;" edge="1" parent="M098wKi7xd-gNNJSRAjr-128" source="M098wKi7xd-gNNJSRAjr-98" target="M098wKi7xd-gNNJSRAjr-103">
          <mxGeometry relative="1" as="geometry">
            <Array as="points">
              <mxPoint x="255" y="170" />
              <mxPoint x="255" y="105" />
            </Array>
          </mxGeometry>
        </mxCell>
        <mxCell id="M098wKi7xd-gNNJSRAjr-104" value="daily, monthly, one_time" style="text;html=1;align=center;verticalAlign=middle;resizable=0;points=[];autosize=1;strokeColor=none;fillColor=none;" vertex="1" parent="M098wKi7xd-gNNJSRAjr-128">
          <mxGeometry x="245" width="150" height="30" as="geometry" />
        </mxCell>
        <mxCell id="M098wKi7xd-gNNJSRAjr-105" style="edgeStyle=orthogonalEdgeStyle;rounded=0;orthogonalLoop=1;jettySize=auto;html=1;" edge="1" parent="M098wKi7xd-gNNJSRAjr-128" source="M098wKi7xd-gNNJSRAjr-103" target="M098wKi7xd-gNNJSRAjr-104">
          <mxGeometry relative="1" as="geometry" />
        </mxCell>
        <mxCell id="M098wKi7xd-gNNJSRAjr-106" value="included_unlocks" style="ellipse;whiteSpace=wrap;html=1;align=center;" vertex="1" parent="M098wKi7xd-gNNJSRAjr-128">
          <mxGeometry x="265" y="120" width="100" height="40" as="geometry" />
        </mxCell>
        <mxCell id="M098wKi7xd-gNNJSRAjr-119" style="edgeStyle=orthogonalEdgeStyle;rounded=0;orthogonalLoop=1;jettySize=auto;html=1;entryX=0.312;entryY=0.997;entryDx=0;entryDy=0;entryPerimeter=0;" edge="1" parent="M098wKi7xd-gNNJSRAjr-128" source="M098wKi7xd-gNNJSRAjr-98" target="M098wKi7xd-gNNJSRAjr-106">
          <mxGeometry relative="1" as="geometry" />
        </mxCell>
        <mxCell id="M098wKi7xd-gNNJSRAjr-108" value="-1 for unlimited" style="text;html=1;align=center;verticalAlign=middle;resizable=0;points=[];autosize=1;strokeColor=none;fillColor=none;" vertex="1" parent="M098wKi7xd-gNNJSRAjr-128">
          <mxGeometry x="275" y="160" width="100" height="30" as="geometry" />
        </mxCell>
        <mxCell id="M098wKi7xd-gNNJSRAjr-109" value="included_unlocks_frequency" style="ellipse;whiteSpace=wrap;html=1;align=center;" vertex="1" parent="M098wKi7xd-gNNJSRAjr-128">
          <mxGeometry x="205" y="230" width="180" height="40" as="geometry" />
        </mxCell>
        <mxCell id="M098wKi7xd-gNNJSRAjr-120" style="edgeStyle=orthogonalEdgeStyle;rounded=0;orthogonalLoop=1;jettySize=auto;html=1;entryX=0.5;entryY=0;entryDx=0;entryDy=0;" edge="1" parent="M098wKi7xd-gNNJSRAjr-128" source="M098wKi7xd-gNNJSRAjr-98" target="M098wKi7xd-gNNJSRAjr-109">
          <mxGeometry relative="1" as="geometry">
            <Array as="points">
              <mxPoint x="295" y="210" />
            </Array>
          </mxGeometry>
        </mxCell>
        <mxCell id="M098wKi7xd-gNNJSRAjr-110" value="included_minutes" style="ellipse;whiteSpace=wrap;html=1;align=center;" vertex="1" parent="M098wKi7xd-gNNJSRAjr-128">
          <mxGeometry x="55" y="250" width="100" height="40" as="geometry" />
        </mxCell>
        <mxCell id="M098wKi7xd-gNNJSRAjr-122" style="edgeStyle=orthogonalEdgeStyle;rounded=0;orthogonalLoop=1;jettySize=auto;html=1;" edge="1" parent="M098wKi7xd-gNNJSRAjr-128" source="M098wKi7xd-gNNJSRAjr-98" target="M098wKi7xd-gNNJSRAjr-110">
          <mxGeometry relative="1" as="geometry" />
        </mxCell>
        <mxCell id="M098wKi7xd-gNNJSRAjr-111" value="included_minutes_frequency" style="ellipse;whiteSpace=wrap;html=1;align=center;" vertex="1" parent="M098wKi7xd-gNNJSRAjr-128">
          <mxGeometry x="162" y="270" width="180" height="40" as="geometry" />
        </mxCell>
        <mxCell id="M098wKi7xd-gNNJSRAjr-121" style="edgeStyle=orthogonalEdgeStyle;rounded=0;orthogonalLoop=1;jettySize=auto;html=1;" edge="1" parent="M098wKi7xd-gNNJSRAjr-128" source="M098wKi7xd-gNNJSRAjr-98" target="M098wKi7xd-gNNJSRAjr-111">
          <mxGeometry relative="1" as="geometry">
            <Array as="points">
              <mxPoint x="155" y="250" />
              <mxPoint x="185" y="250" />
            </Array>
          </mxGeometry>
        </mxCell>
        <mxCell id="M098wKi7xd-gNNJSRAjr-129" value="" style="group" vertex="1" connectable="0" parent="1">
          <mxGeometry x="1000" y="440" width="520" height="350" as="geometry" />
        </mxCell>
        <mxCell id="M098wKi7xd-gNNJSRAjr-68" value="&lt;span style=&quot;&quot;&gt;receipts&lt;/span&gt;" style="rounded=1;whiteSpace=wrap;html=1;" vertex="1" parent="M098wKi7xd-gNNJSRAjr-129">
          <mxGeometry y="235" width="120" height="60" as="geometry" />
        </mxCell>
        <mxCell id="M098wKi7xd-gNNJSRAjr-69" value="id" style="ellipse;whiteSpace=wrap;html=1;align=center;fontStyle=4;" vertex="1" parent="M098wKi7xd-gNNJSRAjr-129">
          <mxGeometry x="150" y="310" width="100" height="40" as="geometry" />
        </mxCell>
        <mxCell id="M098wKi7xd-gNNJSRAjr-70" style="edgeStyle=orthogonalEdgeStyle;rounded=0;orthogonalLoop=1;jettySize=auto;html=1;" edge="1" parent="M098wKi7xd-gNNJSRAjr-129" source="M098wKi7xd-gNNJSRAjr-68" target="M098wKi7xd-gNNJSRAjr-69">
          <mxGeometry relative="1" as="geometry">
            <Array as="points">
              <mxPoint x="200" y="290" />
            </Array>
          </mxGeometry>
        </mxCell>
        <mxCell id="M098wKi7xd-gNNJSRAjr-72" value="member_id" style="ellipse;whiteSpace=wrap;html=1;align=center;" vertex="1" parent="M098wKi7xd-gNNJSRAjr-129">
          <mxGeometry x="221" y="245" width="100" height="40" as="geometry" />
        </mxCell>
        <mxCell id="M098wKi7xd-gNNJSRAjr-82" style="edgeStyle=orthogonalEdgeStyle;rounded=0;orthogonalLoop=1;jettySize=auto;html=1;" edge="1" parent="M098wKi7xd-gNNJSRAjr-129" source="M098wKi7xd-gNNJSRAjr-68" target="M098wKi7xd-gNNJSRAjr-72">
          <mxGeometry relative="1" as="geometry">
            <Array as="points">
              <mxPoint x="180" y="265" />
              <mxPoint x="180" y="265" />
            </Array>
          </mxGeometry>
        </mxCell>
        <mxCell id="M098wKi7xd-gNNJSRAjr-73" style="edgeStyle=orthogonalEdgeStyle;rounded=0;orthogonalLoop=1;jettySize=auto;html=1;exitX=0.5;exitY=1;exitDx=0;exitDy=0;" edge="1" parent="M098wKi7xd-gNNJSRAjr-129" source="M098wKi7xd-gNNJSRAjr-72" target="M098wKi7xd-gNNJSRAjr-72">
          <mxGeometry relative="1" as="geometry" />
        </mxCell>
        <mxCell id="M098wKi7xd-gNNJSRAjr-74" value="payment_type" style="ellipse;whiteSpace=wrap;html=1;align=center;" vertex="1" parent="M098wKi7xd-gNNJSRAjr-129">
          <mxGeometry x="120" y="140" width="100" height="40" as="geometry" />
        </mxCell>
        <mxCell id="M098wKi7xd-gNNJSRAjr-83" style="edgeStyle=orthogonalEdgeStyle;rounded=0;orthogonalLoop=1;jettySize=auto;html=1;" edge="1" parent="M098wKi7xd-gNNJSRAjr-129" source="M098wKi7xd-gNNJSRAjr-68" target="M098wKi7xd-gNNJSRAjr-74">
          <mxGeometry relative="1" as="geometry" />
        </mxCell>
        <mxCell id="M098wKi7xd-gNNJSRAjr-75" value="payment_details" style="ellipse;whiteSpace=wrap;html=1;align=center;" vertex="1" parent="M098wKi7xd-gNNJSRAjr-129">
          <mxGeometry x="50" y="100" width="100" height="40" as="geometry" />
        </mxCell>
        <mxCell id="M098wKi7xd-gNNJSRAjr-86" style="edgeStyle=orthogonalEdgeStyle;rounded=0;orthogonalLoop=1;jettySize=auto;html=1;entryX=0.5;entryY=1;entryDx=0;entryDy=0;" edge="1" parent="M098wKi7xd-gNNJSRAjr-129" source="M098wKi7xd-gNNJSRAjr-68" target="M098wKi7xd-gNNJSRAjr-75">
          <mxGeometry relative="1" as="geometry" />
        </mxCell>
        <mxCell id="M098wKi7xd-gNNJSRAjr-76" value="this can be last 4 digits of card or maybe email address of klarna account.&lt;br&gt;it can also be phone number, if we integrate swish payments" style="text;html=1;align=center;verticalAlign=middle;resizable=0;points=[];autosize=1;strokeColor=none;fillColor=none;" vertex="1" parent="M098wKi7xd-gNNJSRAjr-129">
          <mxGeometry x="110" width="410" height="40" as="geometry" />
        </mxCell>
        <mxCell id="M098wKi7xd-gNNJSRAjr-77" style="edgeStyle=orthogonalEdgeStyle;rounded=0;orthogonalLoop=1;jettySize=auto;html=1;" edge="1" parent="M098wKi7xd-gNNJSRAjr-129" source="M098wKi7xd-gNNJSRAjr-75" target="M098wKi7xd-gNNJSRAjr-76">
          <mxGeometry relative="1" as="geometry">
            <Array as="points">
              <mxPoint x="70" y="60" />
              <mxPoint x="315" y="60" />
            </Array>
          </mxGeometry>
        </mxCell>
        <mxCell id="M098wKi7xd-gNNJSRAjr-78" value="receipt_details" style="ellipse;whiteSpace=wrap;html=1;align=center;" vertex="1" parent="M098wKi7xd-gNNJSRAjr-129">
          <mxGeometry x="180" y="190" width="100" height="40" as="geometry" />
        </mxCell>
        <mxCell id="M098wKi7xd-gNNJSRAjr-84" style="edgeStyle=orthogonalEdgeStyle;rounded=0;orthogonalLoop=1;jettySize=auto;html=1;entryX=0.5;entryY=1;entryDx=0;entryDy=0;" edge="1" parent="M098wKi7xd-gNNJSRAjr-129" source="M098wKi7xd-gNNJSRAjr-68" target="M098wKi7xd-gNNJSRAjr-78">
          <mxGeometry relative="1" as="geometry">
            <Array as="points">
              <mxPoint x="230" y="250" />
            </Array>
          </mxGeometry>
        </mxCell>
        <mxCell id="M098wKi7xd-gNNJSRAjr-79" value="this can have information about the product the user has paid for.&lt;br&gt;ex: if user filled his wallet or paid for a plan" style="text;html=1;align=center;verticalAlign=middle;resizable=0;points=[];autosize=1;strokeColor=none;fillColor=none;" vertex="1" parent="M098wKi7xd-gNNJSRAjr-129">
          <mxGeometry x="136" y="70" width="370" height="40" as="geometry" />
        </mxCell>
        <mxCell id="M098wKi7xd-gNNJSRAjr-127" style="edgeStyle=orthogonalEdgeStyle;rounded=0;orthogonalLoop=1;jettySize=auto;html=1;entryX=0.254;entryY=1.25;entryDx=0;entryDy=0;entryPerimeter=0;" edge="1" parent="M098wKi7xd-gNNJSRAjr-129" source="M098wKi7xd-gNNJSRAjr-78" target="M098wKi7xd-gNNJSRAjr-79">
          <mxGeometry relative="1" as="geometry" />
        </mxCell>
        <mxCell id="M098wKi7xd-gNNJSRAjr-130" value="" style="group" vertex="1" connectable="0" parent="1">
          <mxGeometry x="740" y="80" width="440" height="180" as="geometry" />
        </mxCell>
        <mxCell id="M098wKi7xd-gNNJSRAjr-45" value="member" style="rounded=1;whiteSpace=wrap;html=1;" vertex="1" parent="M098wKi7xd-gNNJSRAjr-130">
          <mxGeometry x="150" y="120" width="120" height="60" as="geometry" />
        </mxCell>
        <mxCell id="M098wKi7xd-gNNJSRAjr-46" value="id" style="ellipse;whiteSpace=wrap;html=1;align=center;fontStyle=4;" vertex="1" parent="M098wKi7xd-gNNJSRAjr-130">
          <mxGeometry x="100" y="50" width="100" height="40" as="geometry" />
        </mxCell>
        <mxCell id="M098wKi7xd-gNNJSRAjr-51" style="edgeStyle=orthogonalEdgeStyle;rounded=0;orthogonalLoop=1;jettySize=auto;html=1;" edge="1" parent="M098wKi7xd-gNNJSRAjr-130" source="M098wKi7xd-gNNJSRAjr-45" target="M098wKi7xd-gNNJSRAjr-46">
          <mxGeometry relative="1" as="geometry" />
        </mxCell>
        <mxCell id="M098wKi7xd-gNNJSRAjr-47" value="name" style="ellipse;whiteSpace=wrap;html=1;align=center;" vertex="1" parent="M098wKi7xd-gNNJSRAjr-130">
          <mxGeometry x="220" y="50" width="100" height="40" as="geometry" />
        </mxCell>
        <mxCell id="M098wKi7xd-gNNJSRAjr-52" style="edgeStyle=orthogonalEdgeStyle;rounded=0;orthogonalLoop=1;jettySize=auto;html=1;entryX=0.5;entryY=1;entryDx=0;entryDy=0;" edge="1" parent="M098wKi7xd-gNNJSRAjr-130" source="M098wKi7xd-gNNJSRAjr-45" target="M098wKi7xd-gNNJSRAjr-47">
          <mxGeometry relative="1" as="geometry" />
        </mxCell>
        <mxCell id="M098wKi7xd-gNNJSRAjr-48" value="personal_number" style="ellipse;whiteSpace=wrap;html=1;align=center;" vertex="1" parent="M098wKi7xd-gNNJSRAjr-130">
          <mxGeometry x="280" width="100" height="40" as="geometry" />
        </mxCell>
        <mxCell id="M098wKi7xd-gNNJSRAjr-58" style="edgeStyle=orthogonalEdgeStyle;rounded=0;orthogonalLoop=1;jettySize=auto;html=1;entryX=0.5;entryY=1;entryDx=0;entryDy=0;" edge="1" parent="M098wKi7xd-gNNJSRAjr-130" source="M098wKi7xd-gNNJSRAjr-45" target="M098wKi7xd-gNNJSRAjr-48">
          <mxGeometry relative="1" as="geometry">
            <Array as="points">
              <mxPoint x="330" y="120" />
            </Array>
          </mxGeometry>
        </mxCell>
        <mxCell id="M098wKi7xd-gNNJSRAjr-49" value="email" style="ellipse;whiteSpace=wrap;html=1;align=center;" vertex="1" parent="M098wKi7xd-gNNJSRAjr-130">
          <mxGeometry x="160" width="100" height="40" as="geometry" />
        </mxCell>
        <mxCell id="M098wKi7xd-gNNJSRAjr-59" style="edgeStyle=orthogonalEdgeStyle;rounded=0;orthogonalLoop=1;jettySize=auto;html=1;" edge="1" parent="M098wKi7xd-gNNJSRAjr-130" source="M098wKi7xd-gNNJSRAjr-45" target="M098wKi7xd-gNNJSRAjr-49">
          <mxGeometry relative="1" as="geometry" />
        </mxCell>
        <mxCell id="M098wKi7xd-gNNJSRAjr-50" value="role" style="ellipse;whiteSpace=wrap;html=1;align=center;" vertex="1" parent="M098wKi7xd-gNNJSRAjr-130">
          <mxGeometry y="70" width="100" height="40" as="geometry" />
        </mxCell>
        <mxCell id="M098wKi7xd-gNNJSRAjr-57" style="edgeStyle=orthogonalEdgeStyle;rounded=0;orthogonalLoop=1;jettySize=auto;html=1;" edge="1" parent="M098wKi7xd-gNNJSRAjr-130" source="M098wKi7xd-gNNJSRAjr-45" target="M098wKi7xd-gNNJSRAjr-50">
          <mxGeometry relative="1" as="geometry" />
        </mxCell>
        <mxCell id="M098wKi7xd-gNNJSRAjr-93" value="wallet" style="ellipse;whiteSpace=wrap;html=1;align=center;" vertex="1" parent="M098wKi7xd-gNNJSRAjr-130">
          <mxGeometry x="340" y="70" width="100" height="40" as="geometry" />
        </mxCell>
        <mxCell id="M098wKi7xd-gNNJSRAjr-124" style="edgeStyle=orthogonalEdgeStyle;rounded=0;orthogonalLoop=1;jettySize=auto;html=1;entryX=0.5;entryY=1;entryDx=0;entryDy=0;" edge="1" parent="M098wKi7xd-gNNJSRAjr-130" source="M098wKi7xd-gNNJSRAjr-45" target="M098wKi7xd-gNNJSRAjr-93">
          <mxGeometry relative="1" as="geometry" />
        </mxCell>
        <mxCell id="M098wKi7xd-gNNJSRAjr-131" value="" style="group" vertex="1" connectable="0" parent="1">
          <mxGeometry x="340" y="140" width="360" height="170" as="geometry" />
        </mxCell>
        <mxCell id="M098wKi7xd-gNNJSRAjr-31" value="vehicles" style="rounded=1;whiteSpace=wrap;html=1;" vertex="1" parent="M098wKi7xd-gNNJSRAjr-131">
          <mxGeometry x="66" y="110" width="120" height="60" as="geometry" />
        </mxCell>
        <mxCell id="M098wKi7xd-gNNJSRAjr-39" style="edgeStyle=orthogonalEdgeStyle;rounded=0;orthogonalLoop=1;jettySize=auto;html=1;" edge="1" parent="M098wKi7xd-gNNJSRAjr-131" source="M098wKi7xd-gNNJSRAjr-34" target="M098wKi7xd-gNNJSRAjr-31">
          <mxGeometry relative="1" as="geometry" />
        </mxCell>
        <mxCell id="M098wKi7xd-gNNJSRAjr-34" value="id" style="ellipse;whiteSpace=wrap;html=1;align=center;fontStyle=4;" vertex="1" parent="M098wKi7xd-gNNJSRAjr-131">
          <mxGeometry y="40" width="100" height="40" as="geometry" />
        </mxCell>
        <mxCell id="M098wKi7xd-gNNJSRAjr-37" style="edgeStyle=orthogonalEdgeStyle;rounded=0;orthogonalLoop=1;jettySize=auto;html=1;" edge="1" parent="M098wKi7xd-gNNJSRAjr-131" source="M098wKi7xd-gNNJSRAjr-35" target="M098wKi7xd-gNNJSRAjr-31">
          <mxGeometry relative="1" as="geometry" />
        </mxCell>
        <mxCell id="M098wKi7xd-gNNJSRAjr-35" value="rented_by&lt;br&gt;&quot;member_id&quot;" style="ellipse;whiteSpace=wrap;html=1;align=center;" vertex="1" parent="M098wKi7xd-gNNJSRAjr-131">
          <mxGeometry x="150" y="40" width="100" height="40" as="geometry" />
        </mxCell>
        <mxCell id="M098wKi7xd-gNNJSRAjr-38" style="edgeStyle=orthogonalEdgeStyle;rounded=0;orthogonalLoop=1;jettySize=auto;html=1;" edge="1" parent="M098wKi7xd-gNNJSRAjr-131" source="M098wKi7xd-gNNJSRAjr-36" target="M098wKi7xd-gNNJSRAjr-31">
          <mxGeometry relative="1" as="geometry" />
        </mxCell>
        <mxCell id="M098wKi7xd-gNNJSRAjr-36" value="city_id" style="ellipse;whiteSpace=wrap;html=1;align=center;" vertex="1" parent="M098wKi7xd-gNNJSRAjr-131">
          <mxGeometry x="76" width="100" height="40" as="geometry" />
        </mxCell>
        <mxCell id="M098wKi7xd-gNNJSRAjr-94" value="type" style="ellipse;whiteSpace=wrap;html=1;align=center;" vertex="1" parent="M098wKi7xd-gNNJSRAjr-131">
          <mxGeometry x="220" y="80" width="100" height="40" as="geometry" />
        </mxCell>
        <mxCell id="M098wKi7xd-gNNJSRAjr-95" style="edgeStyle=orthogonalEdgeStyle;rounded=0;orthogonalLoop=1;jettySize=auto;html=1;" edge="1" parent="M098wKi7xd-gNNJSRAjr-131" source="M098wKi7xd-gNNJSRAjr-31" target="M098wKi7xd-gNNJSRAjr-94">
          <mxGeometry relative="1" as="geometry" />
        </mxCell>
        <mxCell id="M098wKi7xd-gNNJSRAjr-96" value="scooter | bike | ..." style="text;html=1;align=center;verticalAlign=middle;resizable=0;points=[];autosize=1;strokeColor=none;fillColor=none;" vertex="1" parent="M098wKi7xd-gNNJSRAjr-131">
          <mxGeometry x="250" y="20" width="110" height="30" as="geometry" />
        </mxCell>
        <mxCell id="M098wKi7xd-gNNJSRAjr-97" style="edgeStyle=orthogonalEdgeStyle;rounded=0;orthogonalLoop=1;jettySize=auto;html=1;" edge="1" parent="M098wKi7xd-gNNJSRAjr-131" source="M098wKi7xd-gNNJSRAjr-94" target="M098wKi7xd-gNNJSRAjr-96">
          <mxGeometry relative="1" as="geometry" />
        </mxCell>
        <mxCell id="M098wKi7xd-gNNJSRAjr-132" value="" style="group" vertex="1" connectable="0" parent="1">
          <mxGeometry x="40" y="70" width="240" height="240" as="geometry" />
        </mxCell>
        <mxCell id="M098wKi7xd-gNNJSRAjr-2" value="renting_stations" style="rounded=1;whiteSpace=wrap;html=1;" vertex="1" parent="M098wKi7xd-gNNJSRAjr-132">
          <mxGeometry x="50" y="180" width="120" height="60" as="geometry" />
        </mxCell>
        <mxCell id="M098wKi7xd-gNNJSRAjr-4" value="id" style="ellipse;whiteSpace=wrap;html=1;align=center;fontStyle=4;" vertex="1" parent="M098wKi7xd-gNNJSRAjr-132">
          <mxGeometry y="120" width="100" height="40" as="geometry" />
        </mxCell>
        <mxCell id="M098wKi7xd-gNNJSRAjr-9" style="edgeStyle=orthogonalEdgeStyle;rounded=0;orthogonalLoop=1;jettySize=auto;html=1;" edge="1" parent="M098wKi7xd-gNNJSRAjr-132" source="M098wKi7xd-gNNJSRAjr-2" target="M098wKi7xd-gNNJSRAjr-4">
          <mxGeometry relative="1" as="geometry" />
        </mxCell>
        <mxCell id="M098wKi7xd-gNNJSRAjr-6" value="name" style="ellipse;whiteSpace=wrap;html=1;align=center;" vertex="1" parent="M098wKi7xd-gNNJSRAjr-132">
          <mxGeometry x="80" y="50" width="100" height="40" as="geometry" />
        </mxCell>
        <mxCell id="M098wKi7xd-gNNJSRAjr-10" style="edgeStyle=orthogonalEdgeStyle;rounded=0;orthogonalLoop=1;jettySize=auto;html=1;" edge="1" parent="M098wKi7xd-gNNJSRAjr-132" source="M098wKi7xd-gNNJSRAjr-2" target="M098wKi7xd-gNNJSRAjr-6">
          <mxGeometry relative="1" as="geometry" />
        </mxCell>
        <mxCell id="M098wKi7xd-gNNJSRAjr-7" value="coords" style="ellipse;whiteSpace=wrap;html=1;align=center;" vertex="1" parent="M098wKi7xd-gNNJSRAjr-132">
          <mxGeometry x="140" y="100" width="100" height="40" as="geometry" />
        </mxCell>
        <mxCell id="M098wKi7xd-gNNJSRAjr-11" style="edgeStyle=orthogonalEdgeStyle;rounded=0;orthogonalLoop=1;jettySize=auto;html=1;" edge="1" parent="M098wKi7xd-gNNJSRAjr-132" source="M098wKi7xd-gNNJSRAjr-2" target="M098wKi7xd-gNNJSRAjr-7">
          <mxGeometry relative="1" as="geometry" />
        </mxCell>
        <mxCell id="M098wKi7xd-gNNJSRAjr-20" style="edgeStyle=orthogonalEdgeStyle;rounded=0;orthogonalLoop=1;jettySize=auto;html=1;" edge="1" parent="M098wKi7xd-gNNJSRAjr-132" source="M098wKi7xd-gNNJSRAjr-19" target="M098wKi7xd-gNNJSRAjr-2">
          <mxGeometry relative="1" as="geometry" />
        </mxCell>
        <mxCell id="M098wKi7xd-gNNJSRAjr-19" value="city_id" style="ellipse;whiteSpace=wrap;html=1;align=center;" vertex="1" parent="M098wKi7xd-gNNJSRAjr-132">
          <mxGeometry x="20" width="100" height="40" as="geometry" />
        </mxCell>
        <mxCell id="M098wKi7xd-gNNJSRAjr-133" value="" style="group" vertex="1" connectable="0" parent="1">
          <mxGeometry x="30" y="510" width="240" height="135" as="geometry" />
        </mxCell>
        <mxCell id="M098wKi7xd-gNNJSRAjr-13" value="cities" style="rounded=1;whiteSpace=wrap;html=1;" vertex="1" parent="M098wKi7xd-gNNJSRAjr-133">
          <mxGeometry x="60" y="75" width="120" height="60" as="geometry" />
        </mxCell>
        <mxCell id="M098wKi7xd-gNNJSRAjr-14" value="id" style="ellipse;whiteSpace=wrap;html=1;align=center;fontStyle=4;" vertex="1" parent="M098wKi7xd-gNNJSRAjr-133">
          <mxGeometry width="100" height="40" as="geometry" />
        </mxCell>
        <mxCell id="M098wKi7xd-gNNJSRAjr-18" style="edgeStyle=orthogonalEdgeStyle;rounded=0;orthogonalLoop=1;jettySize=auto;html=1;" edge="1" parent="M098wKi7xd-gNNJSRAjr-133" source="M098wKi7xd-gNNJSRAjr-13" target="M098wKi7xd-gNNJSRAjr-14">
          <mxGeometry relative="1" as="geometry" />
        </mxCell>
        <mxCell id="M098wKi7xd-gNNJSRAjr-15" value="name" style="ellipse;whiteSpace=wrap;html=1;align=center;" vertex="1" parent="M098wKi7xd-gNNJSRAjr-133">
          <mxGeometry x="140" width="100" height="40" as="geometry" />
        </mxCell>
        <mxCell id="M098wKi7xd-gNNJSRAjr-17" style="edgeStyle=orthogonalEdgeStyle;rounded=0;orthogonalLoop=1;jettySize=auto;html=1;" edge="1" parent="M098wKi7xd-gNNJSRAjr-133" source="M098wKi7xd-gNNJSRAjr-13" target="M098wKi7xd-gNNJSRAjr-15">
          <mxGeometry relative="1" as="geometry" />
        </mxCell>
        <mxCell id="M098wKi7xd-gNNJSRAjr-177" value="" style="group" vertex="1" connectable="0" parent="1">
          <mxGeometry x="510" y="510" width="410" height="190" as="geometry" />
        </mxCell>
        <mxCell id="M098wKi7xd-gNNJSRAjr-172" style="edgeStyle=orthogonalEdgeStyle;rounded=0;orthogonalLoop=1;jettySize=auto;html=1;" edge="1" parent="M098wKi7xd-gNNJSRAjr-177">
          <mxGeometry relative="1" as="geometry">
            <mxPoint x="220" y="160.0588235294117" as="sourcePoint" />
            <mxPoint x="280" y="40" as="targetPoint" />
          </mxGeometry>
        </mxCell>
        <mxCell id="M098wKi7xd-gNNJSRAjr-175" style="edgeStyle=orthogonalEdgeStyle;rounded=0;orthogonalLoop=1;jettySize=auto;html=1;entryX=0;entryY=0.5;entryDx=0;entryDy=0;" edge="1" parent="M098wKi7xd-gNNJSRAjr-177" source="M098wKi7xd-gNNJSRAjr-134" target="M098wKi7xd-gNNJSRAjr-167">
          <mxGeometry relative="1" as="geometry">
            <mxPoint x="306.79538347712287" y="180.0666666666666" as="targetPoint" />
            <Array as="points">
              <mxPoint x="310" y="180" />
            </Array>
          </mxGeometry>
        </mxCell>
        <mxCell id="M098wKi7xd-gNNJSRAjr-134" value="active_plans" style="rounded=1;whiteSpace=wrap;html=1;" vertex="1" parent="M098wKi7xd-gNNJSRAjr-177">
          <mxGeometry x="110" y="130" width="120" height="60" as="geometry" />
        </mxCell>
        <mxCell id="M098wKi7xd-gNNJSRAjr-158" value="id" style="ellipse;whiteSpace=wrap;html=1;align=center;fontStyle=4;" vertex="1" parent="M098wKi7xd-gNNJSRAjr-177">
          <mxGeometry x="170" y="50" width="100" height="40" as="geometry" />
        </mxCell>
        <mxCell id="M098wKi7xd-gNNJSRAjr-168" style="edgeStyle=orthogonalEdgeStyle;rounded=0;orthogonalLoop=1;jettySize=auto;html=1;entryX=0.5;entryY=1;entryDx=0;entryDy=0;" edge="1" parent="M098wKi7xd-gNNJSRAjr-177" source="M098wKi7xd-gNNJSRAjr-134" target="M098wKi7xd-gNNJSRAjr-158">
          <mxGeometry relative="1" as="geometry" />
        </mxCell>
        <mxCell id="M098wKi7xd-gNNJSRAjr-161" value="member_id" style="ellipse;whiteSpace=wrap;html=1;align=center;" vertex="1" parent="M098wKi7xd-gNNJSRAjr-177">
          <mxGeometry x="57.5" y="50" width="100" height="40" as="geometry" />
        </mxCell>
        <mxCell id="M098wKi7xd-gNNJSRAjr-169" style="edgeStyle=orthogonalEdgeStyle;rounded=0;orthogonalLoop=1;jettySize=auto;html=1;entryX=0.5;entryY=1;entryDx=0;entryDy=0;" edge="1" parent="M098wKi7xd-gNNJSRAjr-177" source="M098wKi7xd-gNNJSRAjr-134" target="M098wKi7xd-gNNJSRAjr-161">
          <mxGeometry relative="1" as="geometry" />
        </mxCell>
        <mxCell id="M098wKi7xd-gNNJSRAjr-162" value="plan_id" style="ellipse;whiteSpace=wrap;html=1;align=center;" vertex="1" parent="M098wKi7xd-gNNJSRAjr-177">
          <mxGeometry width="100" height="40" as="geometry" />
        </mxCell>
        <mxCell id="M098wKi7xd-gNNJSRAjr-171" style="edgeStyle=orthogonalEdgeStyle;rounded=0;orthogonalLoop=1;jettySize=auto;html=1;entryX=0.5;entryY=1;entryDx=0;entryDy=0;" edge="1" parent="M098wKi7xd-gNNJSRAjr-177" source="M098wKi7xd-gNNJSRAjr-134" target="M098wKi7xd-gNNJSRAjr-162">
          <mxGeometry relative="1" as="geometry">
            <Array as="points">
              <mxPoint x="50" y="130" />
            </Array>
          </mxGeometry>
        </mxCell>
        <mxCell id="M098wKi7xd-gNNJSRAjr-163" value="available_unlocks" style="ellipse;whiteSpace=wrap;html=1;align=center;" vertex="1" parent="M098wKi7xd-gNNJSRAjr-177">
          <mxGeometry x="290" y="75" width="100" height="40" as="geometry" />
        </mxCell>
        <mxCell id="M098wKi7xd-gNNJSRAjr-173" style="edgeStyle=orthogonalEdgeStyle;rounded=0;orthogonalLoop=1;jettySize=auto;html=1;entryX=0.5;entryY=1;entryDx=0;entryDy=0;" edge="1" parent="M098wKi7xd-gNNJSRAjr-177" source="M098wKi7xd-gNNJSRAjr-134" target="M098wKi7xd-gNNJSRAjr-163">
          <mxGeometry relative="1" as="geometry">
            <Array as="points">
              <mxPoint x="290" y="170" />
              <mxPoint x="290" y="130" />
              <mxPoint x="340" y="130" />
            </Array>
          </mxGeometry>
        </mxCell>
        <mxCell id="M098wKi7xd-gNNJSRAjr-164" value="available_minutes" style="ellipse;whiteSpace=wrap;html=1;align=center;" vertex="1" parent="M098wKi7xd-gNNJSRAjr-177">
          <mxGeometry x="240" width="100" height="40" as="geometry" />
        </mxCell>
        <mxCell id="M098wKi7xd-gNNJSRAjr-165" value="activation_date" style="ellipse;whiteSpace=wrap;html=1;align=center;" vertex="1" parent="M098wKi7xd-gNNJSRAjr-177">
          <mxGeometry x="110" width="100" height="40" as="geometry" />
        </mxCell>
        <mxCell id="M098wKi7xd-gNNJSRAjr-170" style="edgeStyle=orthogonalEdgeStyle;rounded=0;orthogonalLoop=1;jettySize=auto;html=1;entryX=0.5;entryY=1;entryDx=0;entryDy=0;" edge="1" parent="M098wKi7xd-gNNJSRAjr-177" source="M098wKi7xd-gNNJSRAjr-134" target="M098wKi7xd-gNNJSRAjr-165">
          <mxGeometry relative="1" as="geometry">
            <Array as="points">
              <mxPoint x="160" y="110" />
              <mxPoint x="160" y="110" />
            </Array>
          </mxGeometry>
        </mxCell>
        <mxCell id="M098wKi7xd-gNNJSRAjr-167" value="is_paused" style="ellipse;whiteSpace=wrap;html=1;align=center;" vertex="1" parent="M098wKi7xd-gNNJSRAjr-177">
          <mxGeometry x="330" y="150" width="100" height="40" as="geometry" />
        </mxCell>
        <mxCell id="M098wKi7xd-gNNJSRAjr-179" value="have" style="shape=rhombus;perimeter=rhombusPerimeter;whiteSpace=wrap;html=1;align=center;" vertex="1" parent="1">
          <mxGeometry x="690" y="420" width="120" height="60" as="geometry" />
        </mxCell>
        <mxCell id="M098wKi7xd-gNNJSRAjr-180" value="" style="endArrow=none;html=1;rounded=0;entryX=0;entryY=1;entryDx=0;entryDy=0;exitX=0.5;exitY=0;exitDx=0;exitDy=0;" edge="1" parent="1" source="M098wKi7xd-gNNJSRAjr-179" target="M098wKi7xd-gNNJSRAjr-45">
          <mxGeometry relative="1" as="geometry">
            <mxPoint x="750" y="390" as="sourcePoint" />
            <mxPoint x="910" y="390" as="targetPoint" />
            <Array as="points">
              <mxPoint x="890" y="420" />
            </Array>
          </mxGeometry>
        </mxCell>
        <mxCell id="M098wKi7xd-gNNJSRAjr-182" value="1" style="edgeLabel;html=1;align=center;verticalAlign=middle;resizable=0;points=[];" vertex="1" connectable="0" parent="M098wKi7xd-gNNJSRAjr-180">
          <mxGeometry x="-0.4513" y="1" relative="1" as="geometry">
            <mxPoint as="offset" />
          </mxGeometry>
        </mxCell>
        <mxCell id="M098wKi7xd-gNNJSRAjr-189" value="1" style="edgeLabel;html=1;align=center;verticalAlign=middle;resizable=0;points=[];" vertex="1" connectable="0" parent="M098wKi7xd-gNNJSRAjr-180">
          <mxGeometry x="0.7178" y="-3" relative="1" as="geometry">
            <mxPoint as="offset" />
          </mxGeometry>
        </mxCell>
        <mxCell id="M098wKi7xd-gNNJSRAjr-181" value="" style="endArrow=none;html=1;rounded=0;entryX=0;entryY=0.5;entryDx=0;entryDy=0;exitX=0;exitY=0.5;exitDx=0;exitDy=0;" edge="1" parent="1" source="M098wKi7xd-gNNJSRAjr-179" target="M098wKi7xd-gNNJSRAjr-134">
          <mxGeometry relative="1" as="geometry">
            <mxPoint x="850" y="600" as="sourcePoint" />
            <mxPoint x="1010" y="600" as="targetPoint" />
            <Array as="points">
              <mxPoint x="480" y="450" />
              <mxPoint x="480" y="670" />
            </Array>
          </mxGeometry>
        </mxCell>
        <mxCell id="M098wKi7xd-gNNJSRAjr-183" value="1" style="edgeLabel;html=1;align=center;verticalAlign=middle;resizable=0;points=[];" vertex="1" connectable="0" parent="M098wKi7xd-gNNJSRAjr-181">
          <mxGeometry x="-0.6187" y="2" relative="1" as="geometry">
            <mxPoint x="1" as="offset" />
          </mxGeometry>
        </mxCell>
        <mxCell id="M098wKi7xd-gNNJSRAjr-190" value="1" style="edgeLabel;html=1;align=center;verticalAlign=middle;resizable=0;points=[];" vertex="1" connectable="0" parent="M098wKi7xd-gNNJSRAjr-181">
          <mxGeometry x="0.8737" y="-2" relative="1" as="geometry">
            <mxPoint x="-1" as="offset" />
          </mxGeometry>
        </mxCell>
        <mxCell id="M098wKi7xd-gNNJSRAjr-184" value="have" style="shape=rhombus;perimeter=rhombusPerimeter;whiteSpace=wrap;html=1;align=center;" vertex="1" parent="1">
          <mxGeometry x="620" y="990" width="120" height="60" as="geometry" />
        </mxCell>
        <mxCell id="M098wKi7xd-gNNJSRAjr-185" value="" style="endArrow=none;html=1;rounded=0;entryX=0;entryY=0.5;entryDx=0;entryDy=0;exitX=1;exitY=0.5;exitDx=0;exitDy=0;" edge="1" parent="1" source="M098wKi7xd-gNNJSRAjr-184" target="M098wKi7xd-gNNJSRAjr-98">
          <mxGeometry relative="1" as="geometry">
            <mxPoint x="850" y="620" as="sourcePoint" />
            <mxPoint x="1010" y="620" as="targetPoint" />
          </mxGeometry>
        </mxCell>
        <mxCell id="M098wKi7xd-gNNJSRAjr-196" value="1" style="edgeLabel;html=1;align=center;verticalAlign=middle;resizable=0;points=[];" vertex="1" connectable="0" parent="M098wKi7xd-gNNJSRAjr-185">
          <mxGeometry x="0.5206" y="-5" relative="1" as="geometry">
            <mxPoint as="offset" />
          </mxGeometry>
        </mxCell>
        <mxCell id="M098wKi7xd-gNNJSRAjr-186" value="" style="endArrow=none;html=1;rounded=0;entryX=0.5;entryY=0;entryDx=0;entryDy=0;exitX=0.5;exitY=1;exitDx=0;exitDy=0;" edge="1" parent="1" source="M098wKi7xd-gNNJSRAjr-134" target="M098wKi7xd-gNNJSRAjr-184">
          <mxGeometry relative="1" as="geometry">
            <mxPoint x="850" y="620" as="sourcePoint" />
            <mxPoint x="1010" y="620" as="targetPoint" />
          </mxGeometry>
        </mxCell>
        <mxCell id="M098wKi7xd-gNNJSRAjr-195" value="N" style="edgeLabel;html=1;align=center;verticalAlign=middle;resizable=0;points=[];" vertex="1" connectable="0" parent="M098wKi7xd-gNNJSRAjr-186">
          <mxGeometry x="-0.6713" y="4" relative="1" as="geometry">
            <mxPoint as="offset" />
          </mxGeometry>
        </mxCell>
      </root>
    </mxGraphModel>
  </diagram>
</mxfile>
